<svg id="soundwave" xmlns="http://www.w3.org/2000/svg" xmlns:xlink="http://www.w3.org/1999/xlink" viewBox="0 0 700 700"><defs><style>.cls-1,.cls-10,.cls-11,.cls-12,.cls-13,.cls-14,.cls-15,.cls-16,.cls-17,.cls-2,.cls-3,.cls-4,.cls-5,.cls-6,.cls-7,.cls-8,.cls-9{fill:none;stroke-miterlimit:10}.cls-1{stroke:url(#linear-gradient)}.cls-2{stroke:url(#linear-gradient-2)}.cls-3{stroke:url(#linear-gradient-3)}.cls-4{stroke:url(#linear-gradient-4)}.cls-5{stroke:url(#linear-gradient-5)}.cls-6{stroke:url(#linear-gradient-6)}.cls-7{stroke:url(#linear-gradient-7)}.cls-8{stroke:url(#linear-gradient-8)}.cls-9{stroke:url(#linear-gradient-9)}.cls-10{stroke:url(#linear-gradient-10)}.cls-11{stroke:url(#linear-gradient-11)}.cls-12{stroke:url(#linear-gradient-12)}.cls-13{stroke:url(#linear-gradient-13)}.cls-14{stroke:url(#linear-gradient-14)}.cls-15{stroke:url(#linear-gradient-15)}.cls-16{stroke:url(#linear-gradient-16)}.cls-17{stroke:url(#linear-gradient-17)}</style><linearGradient id="linear-gradient" x1="58.94" y1="1858.49" x2="931.43" y2="1858.49" gradientTransform="rotate(-45 -1467.426 1303.638)" gradientUnits="userSpaceOnUse"><stop offset="0" stop-color="#3fa9f5"/><stop offset="1" stop-color="#ce3645"/></linearGradient><linearGradient id="linear-gradient-2" x1="62.61" y1="1857.88" x2="912.95" y2="1857.88" xlink:href="#linear-gradient"/><linearGradient id="linear-gradient-3" x1="66.29" y1="1857.56" x2="894.49" y2="1857.56" xlink:href="#linear-gradient"/><linearGradient id="linear-gradient-4" x1="69.98" y1="1857.59" x2="876.03" y2="1857.59" xlink:href="#linear-gradient"/><linearGradient id="linear-gradient-5" x1="73.66" y1="1858.08" x2="857.59" y2="1858.08" xlink:href="#linear-gradient"/><linearGradient id="linear-gradient-6" x1="77.37" y1="1859.19" x2="839.17" y2="1859.19" xlink:href="#linear-gradient"/><linearGradient id="linear-gradient-7" x1="81.08" y1="1862.63" x2="820.78" y2="1862.63" xlink:href="#linear-gradient"/><linearGradient id="linear-gradient-8" x1="84.79" y1="1869.92" x2="802.43" y2="1869.92" xlink:href="#linear-gradient"/><linearGradient id="linear-gradient-9" x1="88.52" y1="1877.21" x2="784.13" y2="1877.21" xlink:href="#linear-gradient"/><linearGradient id="linear-gradient-10" x1="92.24" y1="1884.47" x2="765.88" y2="1884.47" xlink:href="#linear-gradient"/><linearGradient id="linear-gradient-11" x1="96" y1="1891.72" x2="747.73" y2="1891.72" xlink:href="#linear-gradient"/><linearGradient id="linear-gradient-12" x1="99.73" y1="1898.94" x2="729.68" y2="1898.94" xlink:href="#linear-gradient"/><linearGradient id="linear-gradient-13" x1="103.49" y1="1906.11" x2="711.76" y2="1906.11" xlink:href="#linear-gradient"/><linearGradient id="linear-gradient-14" x1="107.25" y1="1913.22" x2="694.01" y2="1913.22" xlink:href="#linear-gradient"/><linearGradient id="linear-gradient-15" x1="111.01" y1="1920.22" x2="676.5" y2="1920.22" xlink:href="#linear-gradient"/><linearGradient id="linear-gradient-16" x1="114.81" y1="1927.09" x2="659.31" y2="1927.09" xlink:href="#linear-gradient"/><linearGradient id="linear-gradient-17" x1="118.6" y1="1933.85" x2="642.55" y2="1933.85" xlink:href="#linear-gradient"/></defs><title>160212_svg_Export</title><path class="cls-1" d="M45 648.34c8.6 2.65 19.85 2.49 34.37-1.4 38-10.2 64.86-40.72 88.78-69.94C247 480.77 338.07 392.34 443.09 325c84.47-54.14 214-84.18 241.62-194.86 23-92-53.71-118.29-125.86-92.9-35.65 12.58-71.25 29.14-109.14 33.49-36.32 4.16-72.9-11.39-108.63-.54-50.82 15.43-75.8 70.2-104.23 110.13-17.33 24.33-98 131.24-158 237.11S-20.4 628.14 45 648.34z"/><path class="cls-2" d="M235.19 187C216.81 212.07 138.88 315 81 417 21.35 521.88-16.77 626.37 50.2 648.37a40.71 40.71 0 0 0 7.8 1.69c7.28.91 15.93.27 26.19-2.17 37.55-8.94 64.65-37.42 88.92-65.24q18.1-20.75 36.91-41.29c45-49.08 92.92-96.65 143.52-139.87 28.5-24.23 58.18-47.25 88.94-68.57 23.87-16.5 51.35-31.11 78.81-46.31 65.31-36.1 129.53-75.75 146.55-151.85 19.62-87.7-52.39-112.33-121.26-88.31-34.11 11.88-68.18 27.66-104.31 32-34.64 4.18-69.48-10.2-103.35.29C289.63 94 264.18 147.37 235.19 187z"/><path class="cls-3" d="M233.54 193.61c-19.45 25.89-94.64 124.76-150.51 223-59.24 103.85-96.15 207.9-27.62 231.8a42.3 42.3 0 0 0 7.72 1.83c7.26 1.07 15.8.69 25.85-1.4 37.07-7.68 64.44-34.11 89.05-60.53q18.35-19.7 37.27-39.57c45.12-47.4 92.46-94.77 141.31-138.23 27.32-24.31 55.86-47.69 85.19-69.7 22.74-17 48.77-32.29 74.59-48.17 61.45-37.64 119.95-78.95 134.53-153.29C667.26 56 599.85 33 534.26 55.62c-32.57 11.22-65.1 26.22-99.49 30.59-33 4.19-66.06-9-98.07 1.13-47.7 15.11-73.7 67-103.16 106.27z"/><path class="cls-4" d="M231.89 200.26c-20.53 26.65-93 121.51-146.77 215.94C26.24 519-9.47 622.66 60.63 648.44a43.78 43.78 0 0 0 7.66 2c7.25 1.26 15.67 1.11 25.51-.62C130.39 643.38 158 619 183 594q18.6-18.66 37.64-37.85c45.28-45.72 92.06-92.82 139.11-136.6 26.17-24.35 53.54-48.12 81.44-70.82 21.62-17.46 46.18-33.46 70.38-50C569.11 259.44 621.9 216.6 634 143.94 647.19 65 584.27 43.54 522 64.8c-31 10.55-62 24.77-94.65 29.15-31.28 4.19-62.65-7.81-92.79 2-46.21 14.92-72.66 65.34-102.67 104.31z"/><path class="cls-5" d="M230.24 206.91c-21.61 27.41-91.29 118.26-143 208.89-58.51 101.83-93 205-21.36 232.69a45.55 45.55 0 0 0 7.59 2.12c7.23 1.43 15.55 1.53 25.17.16 36.13-5.14 64-27.5 89.32-51.12q18.85-17.62 38-36.14c45.44-44 91.65-90.86 136.91-135 25-24.39 51.17-48.62 77.69-72 20.45-18 43.59-34.63 66.16-51.89 53.68-40.79 100.79-85.13 110.42-156.17C627.22 74 568.69 54.09 509.68 74c-29.49 9.89-58.95 23.33-89.83 27.72-29.59 4.2-59.22-6.6-87.5 2.79-44.63 14.78-71.62 63.72-102.11 102.4z"/><path class="cls-6" d="M228.58 213.55c-22.71 28.17-89.62 115-139.31 201.83C31.14 516.21-2.14 618.84 71.05 648.52a47.7 47.7 0 0 0 7.53 2.26 76 76 0 0 0 24.83.94c35.67-3.86 63.81-24.2 89.46-46.42 12.74-11 25.55-22.56 38.37-34.41 45.61-42.35 91.25-88.9 134.7-133.32 23.88-24.42 48.85-49.06 74-73.08 19.31-18.47 41-35.81 61.95-53.75 49.8-42.36 91.28-88.1 98.38-157.61 7.15-70-47.11-88.49-102.84-70-27.95 9.22-55.87 21.88-85 26.28-27.91 4.22-55.8-5.37-82.22 3.62-43.13 14.69-70.67 62.13-101.63 100.52z"/><path class="cls-7" d="M226.93 220.2C203.11 249.11 139 332 91.36 415c-57.78 99.79-89.83 201.91-15.1 233.55a50.58 50.58 0 0 0 7.47 2.45 77.45 77.45 0 0 0 24.5 1.72c35.21-2.57 63.6-20.9 89.59-41.71 12.9-10.34 25.84-21.29 38.73-32.69 45.77-40.67 90.86-86.93 132.5-131.69 22.74-24.45 46.52-49.5 70.21-74.2 18.17-19 38.41-37 57.74-55.61 45.92-43.92 81.82-91 86.33-159.05 4.34-65.36-45.8-82.53-98.24-65.38-26.41 8.56-52.79 20.43-80.17 24.85-26.23 4.22-52.38-4.15-76.94 4.45-41.53 14.48-69.64 60.38-101.05 98.51z"/><path class="cls-8" d="M225.28 226.85c-24.94 29.66-86.1 108.63-131.84 187.72-57.2 98.92-88.24 200.41-12 234a53.24 53.24 0 0 0 7.4 2.55 79.64 79.64 0 0 0 24.16 2.51c34.76-1.26 63.4-17.59 89.73-37 13.07-9.65 26.13-20 39.1-31 45.93-39 90.47-84.94 130.3-130.05 21.6-24.47 44.19-49.94 66.46-75.33 17-19.43 35.79-38.2 53.52-57.47 41.95-45.58 72.43-93.8 74.29-160.49 1.69-60.7-44.48-76.57-93.63-60.8-24.87 7.89-49.71 19-75.34 23.41-24.55 4.23-48.95-2.9-71.66 5.29-39.96 14.43-68.64 58.81-100.49 96.66z"/><path class="cls-9" d="M223.63 233.49c-26.07 30.39-84.43 105.4-128.11 180.66-56.83 97.92-86.61 198.78-8.83 234.47a57.89 57.89 0 0 0 7.34 2.7c7.17 2.17 15.06 3 23.82 3.27 34.29 1 63.19-14.28 89.86-32.3 13.24-9 26.43-18.77 39.46-29.26 46.09-37.3 90.09-83 128.09-128.41 20.47-24.49 41.87-50.37 62.71-76.46 15.91-19.91 33.19-39.37 49.31-59.33 38.06-47.14 63.16-96.53 62.25-161.93-.78-56-43.16-70.61-89-56.21-23.33 7.23-46.64 17.54-70.52 22-22.87 4.24-45.52-1.64-66.38 6.12-38.45 14.27-67.73 57.07-100 94.68z"/><path class="cls-10" d="M222 240.14c-27.21 31.11-82.76 102.15-124.38 173.61C41.14 510.66 12.59 611 91.9 648.66a63 63 0 0 0 7.27 2.83 85.87 85.87 0 0 0 23.48 4c33.86 1.4 63-11 90-27.59a478.89 478.89 0 0 0 39.83-27.53c46.26-35.62 89.72-81 125.88-126.78 19.34-24.5 39.55-50.8 59-77.59 14.78-20.38 30.6-40.55 45.09-61.19 34.18-48.7 54-99.2 50.2-163.37-3.05-51.23-41.82-64.56-84.42-51.63-21.77 6.61-43.56 16.1-65.69 20.54-21.19 4.25-42.08-.37-61.09 7-36.9 14.22-66.79 55.41-99.45 92.79z"/><path class="cls-11" d="M220.32 246.79c-28.32 31.82-81.09 98.9-120.64 166.55-56.08 95.9-83.33 195.49-2.56 235.36a68.88 68.88 0 0 0 7.21 3 90.15 90.15 0 0 0 23.14 4.83c33.41 2.76 62.77-7.68 90.14-22.89a398.68 398.68 0 0 0 40.19-25.84c46.42-33.94 89.36-79 123.68-125.15 18.22-24.51 37.23-51.23 55.22-78.71 13.65-20.86 28-41.72 40.88-63.05 30.3-50.25 45.09-101.82 38.16-164.81-5.11-46.45-40.5-58.6-79.82-47-20.24 5.95-40.49 14.65-60.86 19.1-19.51 4.26-38.64.91-55.81 7.79-35.33 14.09-65.83 53.67-98.93 90.82z"/><path class="cls-12" d="M218.67 253.44c-29.5 32.53-79.43 95.65-116.91 159.49-55.72 94.9-81.7 193.89.57 235.8a76.13 76.13 0 0 0 7.14 3.12 96 96 0 0 0 22.81 5.6c33 4.11 62.56-4.37 90.27-18.19a337.81 337.81 0 0 0 40.56-24.09c46.58-32.26 89-76.94 121.48-123.51 17.1-24.52 34.92-51.65 51.48-79.84 12.53-21.33 25.43-42.88 36.66-64.91 26.43-51.8 36.4-104.43 26.11-166.25-6.93-41.66-39.18-52.66-75.22-42.44-18.69 5.28-37.41 13.2-56 17.67-17.83 4.27-35.2 2.22-50.53 8.62-33.79 14.09-64.93 52-98.42 88.93z"/><path class="cls-13" d="M217 260.08c-30.67 33.23-77.77 92.4-113.18 152.44-55.37 93.87-80 192.18 3.71 236.25 2.3 1.21 4.67 2.27 7.08 3.27a103.73 103.73 0 0 0 22.47 6.38c32.5 5.51 62.35-1.06 90.4-13.48a292.94 292.94 0 0 0 40.92-22.37c46.74-30.58 88.67-74.92 119.28-121.87 16-24.52 32.61-52.07 47.73-81 11.41-21.8 22.88-44 32.45-66.76 22.66-53.32 28.06-107.1 14.07-167.69-8.52-36.92-37.86-46.68-70.61-37.87-17.16 4.62-34.33 11.75-51.2 16.23-16.15 4.28-31.75 3.54-45.25 9.45-32.17 14.1-63.97 50.31-97.87 87.02z"/><path class="cls-14" d="M215.36 266.73c-31.83 33.92-76.22 89.08-109.45 145.38-55.2 92.75-78.34 190.49 6.84 236.69 2.29 1.24 4.64 2.35 7 3.41a113.52 113.52 0 0 0 22.13 7.16c32 6.92 62.15 2.24 90.54-8.78a258 258 0 0 0 41.29-20.65c46.91-28.89 88.34-72.9 117.07-120.24a835.89 835.89 0 0 0 44-82.09c10.29-22.26 20.3-45.21 28.22-68.61 18.78-54.88 20.17-109.93 2-169.13-9.89-32.26-36.55-40.73-66-33.28-15.62 3.95-31.26 10.31-46.38 14.8-14.47 4.29-28.28 4.89-40 10.28-30.5 14.11-62.99 48.55-97.26 85.06z"/><path class="cls-15" d="M213.71 273.38C180.7 308 139.16 359.21 108 411.7c-54.84 91.74-76.66 188.78 10 237.14 2.28 1.28 4.61 2.44 7 3.55a125.81 125.81 0 0 0 21.79 7.93c31.57 8.35 61.94 5.54 90.67-4.07A229.91 229.91 0 0 0 279 637.33c47.07-27.21 88-70.87 114.87-118.6a716.07 716.07 0 0 0 40.24-83.22c9.22-22.72 17.71-46.38 24-70.49 14.9-56.44 12.88-113.07-10-170.57-11-27.75-35.23-34.78-61.41-28.69-14.08 3.28-28.18 8.86-41.54 13.36-12.78 4.3-24.81 6.25-34.68 11.11-28.9 14.24-62.12 46.84-96.77 83.15z"/><path class="cls-16" d="M212.06 280c-34.26 35.21-72.88 82.6-102 131.27-54.47 90.73-74.9 187 13.1 237.58 2.28 1.31 4.58 2.53 6.89 3.69a142.12 142.12 0 0 0 21.46 8.72c31.08 9.79 61.73 8.85 90.81.63a207.46 207.46 0 0 0 42-17.21c47.23-25.53 87.83-68.79 112.66-117a636.73 636.73 0 0 0 36.52-84.28 506.72 506.72 0 0 0 19.8-72.4c11-58 6.32-116.79-22.06-172-12.07-23.48-33.93-28.89-56.8-24.11-12.55 2.58-25.1 7.41-36.72 11.93-11.1 4.31-21.32 7.64-29.4 11.94-27.21 14.52-61.32 45.09-96.26 81.24z"/><path class="cls-17" d="M135.22 652.75c52.32 27.92 107 23.19 154.44-.66s87.46-66.8 110.46-115.33c20.29-42.82 41.18-100.1 48.34-159.68s.56-121.45-34.1-173.45c-27.38-41.07-83.49-10.78-108.2 3.75-25.38 14.91-60.35 43.36-95.74 79.29S139.2 366 112.15 410.88c-54.1 89.72-73.16 185.19 16.24 238q3.4 2.04 6.83 3.87z"/></svg>