<svg id="soundwave" xmlns="http://www.w3.org/2000/svg" viewBox="0 0 36 36"><defs><style>.cls-1{fill:url(#linear-gradient)}</style><linearGradient id="linear-gradient" x1="17.66" y1="2.35" x2="17.66" y2="33.65" gradientUnits="userSpaceOnUse"><stop offset="0" stop-color="#cc3948"/><stop offset="1" stop-color="#4ca1d7"/></linearGradient></defs><title>160212_svg_Export</title><path class="cls-1" d="M33 3.37c-1.2-1.12-3.33-1.37-5.52-.56l-1.21.45a16.68 16.68 0 0 1-3.91 1.13 9.38 9.38 0 0 1-2.14-.09 7.41 7.41 0 0 0-3.09.08c-2 .62-3.26 2.5-4.33 4.16-.27.42-.53.83-.8 1.21l-.48.67A116.54 116.54 0 0 0 4.47 21c-2.78 4.9-3.77 8.18-3 10a2.41 2.41 0 0 0 1.62 1.45 2.41 2.41 0 0 0 .71.1 3.65 3.65 0 0 0 .46 0l.24.09a3.44 3.44 0 0 0 .57 0h.35a5.18 5.18 0 0 0 1.13.15h.19a5.63 5.63 0 0 0 .66.21c.22 0 .45.07.67.09a7.81 7.81 0 0 0 2.94.58 8.72 8.72 0 0 0 3.92-1A12.25 12.25 0 0 0 20.35 27a29.42 29.42 0 0 0 2.21-6.7c.36-.72.71-1.45 1-2.18.37-.45.75-.9 1.1-1.36l.45-.6.47-.36c.51-.4 1-.83 1.51-1.29 3.06-1.57 5.93-3.4 6.8-6.91.6-2.29-.14-3.6-.89-4.23zM26.71 14l-.31.16a6.58 6.58 0 0 0 .6-4.91A2.51 2.51 0 0 0 26.19 7a3.91 3.91 0 0 0-3.61-.43l-.93.3a13.59 13.59 0 0 1-2.21.6 6.53 6.53 0 0 1-1.22 0 4.9 4.9 0 0 0-1.94.2 7.88 7.88 0 0 0-2.94 2.28c1-1.4 2.11-2.77 3.58-3.26a5.49 5.49 0 0 1 2.24-.1 8.49 8.49 0 0 0 1.82 0 15.29 15.29 0 0 0 3.2-.9l1.05-.37a4 4 0 0 1 3.68.26 3 3 0 0 1 .85 2.8A9 9 0 0 1 26.71 14zm-.36-4.6a6.46 6.46 0 0 1-1 5.3l-.8.4a6.28 6.28 0 0 0-1-5.06 1.9 1.9 0 0 0-.79-1.3 3.25 3.25 0 0 0-2.61-.34l-.92.24c-.41.12-.84.24-1.26.31a6.39 6.39 0 0 1-.75.08 4 4 0 0 0-1.38.26 11.27 11.27 0 0 0-3.29 2.63l.18-.21c1.27-1.5 2.39-2.91 3.8-3.43a4.32 4.32 0 0 1 1.68-.15 7.2 7.2 0 0 0 1.34 0 14.1 14.1 0 0 0 2.32-.62l.91-.29a3.29 3.29 0 0 1 3 .3 1.88 1.88 0 0 1 .58 1.76v.04zM7.55 32.07a11.36 11.36 0 0 0 2.64-1.94q.89-.82 1.79-1.69c1.22-1.18 2.44-2.4 3.66-3.62.91-.91 1.51-1.82 2.41-2.7 1.25-1.23 2.46-2.42 3.46-3.53 0 .1.29.2.28.3s-.16.38-.31.57c-1 1.24-2 2.58-3 3.87a43.29 43.29 0 0 1-5.92 6c-.62.49-1.21.95-1.82 1.35a7.88 7.88 0 0 1-3.19 1.39zm16.19-16.59l-.91.5A6.61 6.61 0 0 0 20 10.73a4.62 4.62 0 0 0-4.55.19 22.62 22.62 0 0 0-3.79 3l.33-.36C13.4 12 14.77 10.5 16.13 9.9a3.45 3.45 0 0 1 1.15-.21 6.91 6.91 0 0 0 .82-.09c.45-.08.89-.21 1.31-.33l.9-.27a2.63 2.63 0 0 1 2.05.23 1.23 1.23 0 0 1 .52.91v.1l.06.08a5.85 5.85 0 0 1 .8 5.16zm-.86 1.58v-.31l.64-.36-.09.26zm-16 14.57l-.09-.07A13.57 13.57 0 0 0 9.28 29a56.62 56.62 0 0 1 12.91-11.84v.48l-.43.36c-1.29 1.15-2.59 2.37-3.88 3.64-.9.89-1.81 1.8-2.73 2.71-1.22 1.22-2.44 2.44-3.65 3.61-.6.57-1.19 1.14-1.78 1.68a9.75 9.75 0 0 1-2.88 1.99zm-2.15-3c-.5-2 .17-4.62 2-7.58a32.75 32.75 0 0 1 4.62-5.84 24.67 24.67 0 0 1 4.48-3.72A4.7 4.7 0 0 1 18 10.9a2.83 2.83 0 0 1 1.55.41 6.11 6.11 0 0 1 2.58 5.06l-.26.16A57.23 57.23 0 0 0 8.75 28.58a12.25 12.25 0 0 1-2.57 2.52 4.9 4.9 0 0 1-1.5-2.44zm-.73.2a5.51 5.51 0 0 0 1.5 2.59 4 4 0 0 1-1.44-2.09 5 5 0 0 1-.16-1.1 6.09 6.09 0 0 0 .1.6zm-.61.69a4.57 4.57 0 0 0 1.08 1.9 3 3 0 0 1-1.06-1.5 4.37 4.37 0 0 1-.17-1.15 5.44 5.44 0 0 0 .17.74zm-.63.6a3.76 3.76 0 0 0 .77 1.36 2.31 2.31 0 0 1-.79-1.08 3.89 3.89 0 0 1-.18-1.34 4.9 4.9 0 0 0 .22 1.05zm8.3 1.13c.62-.42 1.25-.88 1.88-1.39a44.09 44.09 0 0 0 6.06-6.1c.94-1.13 1.88-2.29 2.75-3.39l-.19.36-.1.21A45.42 45.42 0 0 1 19.11 25a19.66 19.66 0 0 1-5.53 5.66 13.39 13.39 0 0 1-1.89 1 7.67 7.67 0 0 1-2.76.68 11 11 0 0 0 2.15-1.1zm-9-.42a3.35 3.35 0 0 1-.16-1.51 4.38 4.38 0 0 0 .21 1.31 3 3 0 0 0 .57 1 1.66 1.66 0 0 1-.61-.82zm17.66-4.07a11.56 11.56 0 0 1-5.1 5.33 7.85 7.85 0 0 1-4.45.86 9.14 9.14 0 0 0 1.83-.61 14.1 14.1 0 0 0 2-1.08 20.35 20.35 0 0 0 5.73-5.86c.41-.62 1-1.5 1.54-2.54a30 30 0 0 1-1.54 3.88zM33.24 7.47c-.63 2.53-2.48 4.17-4.67 5.53a8.76 8.76 0 0 0 1.89-4.5 3.57 3.57 0 0 0-1.1-3.5A4.56 4.56 0 0 0 25 4.66L24 5a14.77 14.77 0 0 1-3.06.86 7.84 7.84 0 0 1-1.68 0 6.08 6.08 0 0 0-2.55.14 6.42 6.42 0 0 0-2.76 2 6.72 6.72 0 0 1 3.39-3 4.33 4.33 0 0 1 1.27-.17 13.19 13.19 0 0 1 1.53.17 9.89 9.89 0 0 0 2.3.09 17.18 17.18 0 0 0 4.07-1.17l1.19-.44c1.92-.68 3.83-.51 4.86.42.84.74 1.08 1.98.68 3.57z"/></svg>