<svg id="soundwave" xmlns="http://www.w3.org/2000/svg" xmlns:xlink="http://www.w3.org/1999/xlink" viewBox="0 0 160 120"><defs><style>.cls-1,.cls-10,.cls-11,.cls-12,.cls-13,.cls-14,.cls-2,.cls-3,.cls-4,.cls-5,.cls-6,.cls-7,.cls-8,.cls-9{fill:none;stroke-miterlimit:10;stroke-width:1.4px}.cls-1{stroke:url(#linear-gradient)}.cls-2{stroke:url(#linear-gradient-2)}.cls-3{stroke:url(#linear-gradient-3)}.cls-4{stroke:url(#linear-gradient-4)}.cls-5{stroke:url(#linear-gradient-5)}.cls-6{stroke:url(#linear-gradient-6)}.cls-7{stroke:url(#linear-gradient-7)}.cls-8{stroke:url(#linear-gradient-8)}.cls-9{stroke:url(#linear-gradient-9)}.cls-10{stroke:url(#linear-gradient-10)}.cls-11{stroke:url(#linear-gradient-11)}.cls-12{stroke:url(#linear-gradient-12)}.cls-13{stroke:url(#linear-gradient-13)}.cls-14{stroke:url(#linear-gradient-14)}</style><linearGradient id="linear-gradient" x1="20.24" y1="79.5" x2="20.24" y2="40.5" gradientUnits="userSpaceOnUse"><stop offset="0" stop-color="#cc3948"/><stop offset="1" stop-color="#4ca1d7"/></linearGradient><linearGradient id="linear-gradient-2" x1="29.43" y1="74.83" x2="29.43" y2="45.17" xlink:href="#linear-gradient"/><linearGradient id="linear-gradient-3" x1="38.63" y1="83.17" x2="38.63" y2="36.83" xlink:href="#linear-gradient"/><linearGradient id="linear-gradient-4" x1="47.82" y1="99.84" x2="47.82" y2="20.16" xlink:href="#linear-gradient"/><linearGradient id="linear-gradient-5" x1="57.01" y1="109.17" x2="57.01" y2="10.83" xlink:href="#linear-gradient"/><linearGradient id="linear-gradient-6" x1="66.21" y1="100.83" x2="66.21" y2="19.17" xlink:href="#linear-gradient"/><linearGradient id="linear-gradient-7" x1="75.4" y1="83.88" x2="75.4" y2="36.12" xlink:href="#linear-gradient"/><linearGradient id="linear-gradient-8" x1="84.6" y1="88.12" x2="84.6" y2="31.88" xlink:href="#linear-gradient"/><linearGradient id="linear-gradient-9" x1="93.79" y1="93.2" x2="93.79" y2="26.8" xlink:href="#linear-gradient"/><linearGradient id="linear-gradient-10" x1="102.99" y1="90.09" x2="102.99" y2="29.91" xlink:href="#linear-gradient"/><linearGradient id="linear-gradient-11" x1="112.18" y1="94.61" x2="112.18" y2="25.39" xlink:href="#linear-gradient"/><linearGradient id="linear-gradient-12" x1="121.37" y1="103.37" x2="121.37" y2="16.63" xlink:href="#linear-gradient"/><linearGradient id="linear-gradient-13" x1="130.57" y1="81.48" x2="130.57" y2="38.52" xlink:href="#linear-gradient"/><linearGradient id="linear-gradient-14" x1="139.76" y1="71.73" x2="139.76" y2="48.27" xlink:href="#linear-gradient"/></defs><title>160212_svg_Export</title><path class="cls-1" d="M20.24 40.5v39"/><path class="cls-2" d="M29.43 45.17v29.66"/><path class="cls-3" d="M38.63 36.83v46.34"/><path class="cls-4" d="M47.82 20.16v79.68"/><path class="cls-5" d="M57.01 10.83v98.34"/><path class="cls-6" d="M66.21 19.17v81.66"/><path class="cls-7" d="M75.4 36.12v47.76"/><path class="cls-8" d="M84.6 31.88v56.24"/><path class="cls-9" d="M93.79 26.8v66.4"/><path class="cls-10" d="M102.99 29.91v60.18"/><path class="cls-11" d="M112.18 25.39v69.22"/><path class="cls-12" d="M121.37 16.63v86.74"/><path class="cls-13" d="M130.57 38.52v42.96"/><path class="cls-14" d="M139.76 48.27v23.46"/></svg>