<svg id="soundwave" xmlns="http://www.w3.org/2000/svg" xmlns:xlink="http://www.w3.org/1999/xlink" viewBox="0 0 36 36"><defs><style>.cls-1{fill:url(#linear-gradient);}</style><linearGradient id="linear-gradient" x1="17.66" y1="2.35" x2="17.66" y2="33.65" gradientUnits="userSpaceOnUse"><stop offset="0" stop-color="#cc3948"/><stop offset="1" stop-color="#4ca1d7"/></linearGradient></defs><title>160212_svg_Export</title><path class="cls-1" d="M33,3.37C31.8,2.25,29.67,2,27.48,2.81l-1.21.45a16.68,16.68,0,0,1-3.91,1.13,9.38,9.38,0,0,1-2.14-.09,7.41,7.41,0,0,0-3.09.08c-2,.62-3.26,2.5-4.33,4.16-0.27.42-.53,0.83-0.8,1.21l-0.48.67A116.54,116.54,0,0,0,4.47,21c-2.78,4.9-3.77,8.18-3,10a2.41,2.41,0,0,0,1.62,1.45,2.41,2.41,0,0,0,.71.1,3.65,3.65,0,0,0,.46,0L4.5,32.64a3.44,3.44,0,0,0,.57,0l0.35,0h0a5.18,5.18,0,0,0,1.13.15H6.74A5.63,5.63,0,0,0,7.4,33c0.22,0,.45.07,0.67,0.09a7.81,7.81,0,0,0,2.94.58,8.72,8.72,0,0,0,3.92-1A12.25,12.25,0,0,0,20.35,27a29.42,29.42,0,0,0,2.21-6.7c0.36-.72.71-1.45,1-2.18,0.37-.45.75-0.9,1.1-1.36l0.45-.6,0.47-.36c0.51-.4,1-0.83,1.51-1.29,3.06-1.57,5.93-3.4,6.8-6.91C34.49,5.31,33.75,4,33,3.37ZM26.71,14l-0.31.16A6.58,6.58,0,0,0,27,9.25,2.51,2.51,0,0,0,26.19,7a3.91,3.91,0,0,0-3.61-.43l-0.93.3a13.59,13.59,0,0,1-2.21.6,6.53,6.53,0,0,1-1.22,0,4.9,4.9,0,0,0-1.94.2,7.88,7.88,0,0,0-2.94,2.28c1-1.4,2.11-2.77,3.58-3.26a5.49,5.49,0,0,1,2.24-.1,8.49,8.49,0,0,0,1.82,0,15.29,15.29,0,0,0,3.2-.9l1.05-.37a4,4,0,0,1,3.68.26,3,3,0,0,1,.85,2.8A9,9,0,0,1,26.71,14Zm-0.36-4.6a6.46,6.46,0,0,1-1,5.3l-0.8.4a6.28,6.28,0,0,0-1-5.06,1.9,1.9,0,0,0-.79-1.3,3.25,3.25,0,0,0-2.61-.34l-0.92.24c-0.41.12-.84,0.24-1.26,0.31a6.39,6.39,0,0,1-.75.08,4,4,0,0,0-1.38.26,11.27,11.27,0,0,0-3.29,2.63l0.18-.21C14,10.21,15.12,8.8,16.53,8.28a4.32,4.32,0,0,1,1.68-.15,7.2,7.2,0,0,0,1.34,0,14.1,14.1,0,0,0,2.32-.62l0.91-.29a3.29,3.29,0,0,1,3,.3,1.88,1.88,0,0,1,.58,1.76V9.32ZM7.55,32.07h0a11.36,11.36,0,0,0,2.64-1.94q0.89-.82,1.79-1.69c1.22-1.18,2.44-2.4,3.66-3.62,0.91-.91,1.51-1.82,2.41-2.7,1.25-1.23,2.46-2.42,3.46-3.53h0c0,0.1.29,0.2,0.28,0.3s-0.16.38-.31,0.57c-1,1.24-2,2.58-3,3.87a43.29,43.29,0,0,1-5.92,6c-0.62.49-1.21,0.95-1.82,1.35A7.88,7.88,0,0,1,7.55,32.07ZM23.74,15.48l-0.91.5A6.61,6.61,0,0,0,20,10.73a4.62,4.62,0,0,0-4.55.19,22.62,22.62,0,0,0-3.79,3l0.33-.36C13.4,12,14.77,10.5,16.13,9.9a3.45,3.45,0,0,1,1.15-.21A6.91,6.91,0,0,0,18.1,9.6c0.45-.08.89-0.21,1.31-0.33L20.31,9a2.63,2.63,0,0,1,2.05.23,1.23,1.23,0,0,1,.52.91v0.1l0.06,0.08A5.85,5.85,0,0,1,23.74,15.48Zm-0.86,1.58c0-.11,0-0.21,0-0.31l0.64-.36-0.09.26Zm-16,14.57-0.09-.07A13.57,13.57,0,0,0,9.28,29,56.62,56.62,0,0,1,22.19,17.16c0,0.16,0,.32,0,0.48L21.76,18c-1.29,1.15-2.59,2.37-3.88,3.64-0.9.89-1.81,1.8-2.73,2.71-1.22,1.22-2.44,2.44-3.65,3.61-0.6.57-1.19,1.14-1.78,1.68A9.75,9.75,0,0,1,6.84,31.63Zm-2.15-3c-0.5-2,.17-4.62,2-7.58a32.75,32.75,0,0,1,4.62-5.84,24.67,24.67,0,0,1,4.48-3.72A4.7,4.7,0,0,1,18,10.9a2.83,2.83,0,0,1,1.55.41,6.11,6.11,0,0,1,2.58,5.06l-0.26.16A57.23,57.23,0,0,0,8.75,28.58,12.25,12.25,0,0,1,6.18,31.1,4.9,4.9,0,0,1,4.68,28.66ZM4,28.83a5.51,5.51,0,0,0,1.5,2.59,4,4,0,0,1-1.44-2.09,5,5,0,0,1-.16-1.1A6.09,6.09,0,0,0,4,28.83Zm-0.61.69a4.57,4.57,0,0,0,1.08,1.9,3,3,0,0,1-1.06-1.5,4.37,4.37,0,0,1-.17-1.15A5.44,5.44,0,0,0,3.41,29.51Zm-0.63.6a3.76,3.76,0,0,0,.77,1.36,2.31,2.31,0,0,1-.79-1.08,3.89,3.89,0,0,1-.18-1.34A4.9,4.9,0,0,0,2.78,30.11Zm8.3,1.13c0.62-.42,1.25-0.88,1.88-1.39A44.09,44.09,0,0,0,19,23.76c0.94-1.13,1.88-2.29,2.75-3.39l-0.19.36-0.1.21A45.42,45.42,0,0,1,19.11,25a19.66,19.66,0,0,1-5.53,5.66,13.39,13.39,0,0,1-1.89,1,7.67,7.67,0,0,1-2.76.68A11,11,0,0,0,11.08,31.24Zm-9-.42a3.35,3.35,0,0,1-.16-1.51,4.38,4.38,0,0,0,.21,1.31,3,3,0,0,0,.57,1A1.66,1.66,0,0,1,2.07,30.81Zm17.66-4.07a11.56,11.56,0,0,1-5.1,5.33,7.85,7.85,0,0,1-4.45.86A9.14,9.14,0,0,0,12,32.34a14.1,14.1,0,0,0,2-1.08,20.35,20.35,0,0,0,5.73-5.86c0.41-.62,1-1.5,1.54-2.54A30,30,0,0,1,19.73,26.74ZM33.24,7.47C32.61,10,30.76,11.64,28.57,13a8.76,8.76,0,0,0,1.89-4.5A3.57,3.57,0,0,0,29.36,5,4.56,4.56,0,0,0,25,4.66L24,5a14.77,14.77,0,0,1-3.06.86,7.84,7.84,0,0,1-1.68,0A6.08,6.08,0,0,0,16.71,6a6.42,6.42,0,0,0-2.76,2,6.72,6.72,0,0,1,3.39-3,4.33,4.33,0,0,1,1.27-.17A13.19,13.19,0,0,1,20.14,5a9.89,9.89,0,0,0,2.3.09,17.18,17.18,0,0,0,4.07-1.17l1.19-.44c1.92-.68,3.83-0.51,4.86.42C33.4,4.64,33.64,5.88,33.24,7.47Z"/></svg>