<svg xmlns="http://www.w3.org/2000/svg" xmlns:xlink="http://www.w3.org/1999/xlink" viewBox="0 0 96 96"><defs><style>.a{fill:url(#a);}</style><linearGradient id="a" x1="48" y1="32.35" x2="48" y2="63.65" gradientUnits="userSpaceOnUse"><stop offset="0" stop-color="#cc3948"/><stop offset="1" stop-color="#4ca1d7"/></linearGradient></defs><title>logo-big</title><path class="a" d="M63.36,33.37C62.14,32.25,60,32,57.82,32.81l-1.21.45a16.68,16.68,0,0,1-3.91,1.13,9.38,9.38,0,0,1-2.14-.09,7.41,7.41,0,0,0-3.09.08c-2,.62-3.26,2.5-4.33,4.16-0.27.42-.53,0.83-0.8,1.21l-0.48.67a116.54,116.54,0,0,0-7,10.64c-2.78,4.9-3.77,8.18-3,10a2.51,2.51,0,0,0,2.34,1.55,3.65,3.65,0,0,0,.46,0l0.27,0.06a3.44,3.44,0,0,0,.57,0l0.35,0h0a5.18,5.18,0,0,0,1.13.15h0.18a5.63,5.63,0,0,0,.66.16c0.22,0,.45.07,0.67,0.09a7.81,7.81,0,0,0,2.94.58,8.72,8.72,0,0,0,3.92-1A12.25,12.25,0,0,0,50.69,57a29.42,29.42,0,0,0,2.21-6.7c0.36-.72.71-1.45,1-2.18,0.37-.45.75-0.9,1.1-1.36l0.45-.6,0.47-.36c0.51-.4,1-0.83,1.51-1.29,3.06-1.57,5.93-3.4,6.8-6.91C64.83,35.31,64.09,34,63.36,33.37ZM57,44l-0.31.16a6.58,6.58,0,0,0,.62-4.88,2.51,2.51,0,0,0-.83-2.3,3.91,3.91,0,0,0-3.61-.43l-0.93.3a13.59,13.59,0,0,1-2.21.6,6.53,6.53,0,0,1-1.22,0,4.9,4.9,0,0,0-1.94.2,7.88,7.88,0,0,0-2.94,2.28c1-1.4,2.11-2.77,3.58-3.26a5.49,5.49,0,0,1,2.24-.1,8.49,8.49,0,0,0,1.82,0,15.29,15.29,0,0,0,3.2-.9l1.05-.37a4,4,0,0,1,3.68.26,3,3,0,0,1,.85,2.8A9,9,0,0,1,57,44Zm-0.36-4.6a6.46,6.46,0,0,1-1,5.3l-0.8.4a6.28,6.28,0,0,0-1-5.06,1.9,1.9,0,0,0-.79-1.3,3.25,3.25,0,0,0-2.61-.34l-0.92.24c-0.41.12-.84,0.24-1.26,0.31a6.39,6.39,0,0,1-.75.08,4,4,0,0,0-1.38.26,11.27,11.27,0,0,0-3.29,2.63l0.18-.21c1.22-1.48,2.37-2.89,3.78-3.41a4.32,4.32,0,0,1,1.68-.15,7.2,7.2,0,0,0,1.34,0,14.1,14.1,0,0,0,2.32-.62l0.91-.29a3.29,3.29,0,0,1,3,.3,1.88,1.88,0,0,1,.58,1.76v0.07ZM37.89,62.07h0a11.36,11.36,0,0,0,2.64-1.94q0.89-.82,1.79-1.69c1.22-1.18,2.44-2.4,3.66-3.62,0.91-.91,1.73-1.82,2.63-2.7,1.25-1.23,2.68-2.42,3.68-3.53h0a2.68,2.68,0,0,1,.05.3c-0.16.19-.27,0.38-0.43,0.57-1,1.24-2,2.58-3.1,3.87a43.37,43.37,0,0,1-5.94,6c-0.62.49-1.23,0.95-1.83,1.35A7.94,7.94,0,0,1,37.89,62.07ZM54.08,45.48l-0.91.5a6.61,6.61,0,0,0-2.87-5.24,4.62,4.62,0,0,0-4.55.19,22.62,22.62,0,0,0-3.79,3l0.33-.36c1.46-1.59,2.84-3.09,4.19-3.68a3.45,3.45,0,0,1,1.15-.21,6.91,6.91,0,0,0,.83-0.09c0.45-.08.89-0.21,1.31-0.33L50.65,39a2.63,2.63,0,0,1,2.05.23,1.23,1.23,0,0,1,.52.91v0.1l0.06,0.08A5.85,5.85,0,0,1,54.08,45.48Zm-0.86,1.58c0-.11,0-0.21,0-0.31l0.64-.36-0.09.26Zm-16,14.57-0.09-.07A13.57,13.57,0,0,0,39.62,59,56.62,56.62,0,0,1,52.53,47.16c0,0.16,0,.32,0,0.48L52.1,48c-1.29,1.15-2.59,2.37-3.88,3.64-0.9.89-1.81,1.8-2.73,2.71-1.22,1.22-2.44,2.44-3.65,3.61-0.6.57-1.19,1.14-1.78,1.68A9.75,9.75,0,0,1,37.18,61.63Zm-2.15-3c-0.5-2,.17-4.62,2-7.58a32.75,32.75,0,0,1,4.62-5.84,24.67,24.67,0,0,1,4.48-3.72,4.7,4.7,0,0,1,2.29-.62,2.83,2.83,0,0,1,1.55.41,6.11,6.11,0,0,1,2.58,5.06l-0.26.16A57.23,57.23,0,0,0,39.09,58.58a12.25,12.25,0,0,1-2.56,2.52A4.9,4.9,0,0,1,35,58.66Zm-0.66.17a5.51,5.51,0,0,0,1.5,2.59,4,4,0,0,1-1.44-2.09,5,5,0,0,1-.16-1.1A6.09,6.09,0,0,0,34.36,58.83Zm-0.61.69a4.57,4.57,0,0,0,1.08,1.9,3,3,0,0,1-1.06-1.5,4.37,4.37,0,0,1-.17-1.15A5.44,5.44,0,0,0,33.75,59.51Zm-0.63.6a3.76,3.76,0,0,0,.77,1.36,2.31,2.31,0,0,1-.79-1.08,3.89,3.89,0,0,1-.18-1.34A4.9,4.9,0,0,0,33.12,60.11Zm8.3,1.13c0.62-.42,1.25-0.88,1.88-1.39a44.09,44.09,0,0,0,6.05-6.09c0.94-1.13,1.88-2.29,2.75-3.39l-0.19.36-0.1.21A45.42,45.42,0,0,1,49.45,55a19.66,19.66,0,0,1-5.53,5.66,13.39,13.39,0,0,1-1.89,1,7.67,7.67,0,0,1-2.76.68A11,11,0,0,0,41.42,61.24Zm-9-.42a3.35,3.35,0,0,1-.16-1.51,4.38,4.38,0,0,0,.21,1.31,3,3,0,0,0,.57,1A1.66,1.66,0,0,1,32.41,60.81Zm17.66-4.07A11.56,11.56,0,0,1,45,62.06a7.85,7.85,0,0,1-4.45.86,9.14,9.14,0,0,0,1.79-.58,14.1,14.1,0,0,0,2-1.08A20.35,20.35,0,0,0,50,55.4c0.41-.62,1-1.5,1.54-2.54A30,30,0,0,1,50.07,56.74ZM63.58,37.47C62.95,40,61.1,41.64,58.91,43a8.76,8.76,0,0,0,1.89-4.5A3.57,3.57,0,0,0,59.7,35a4.56,4.56,0,0,0-4.33-.38L54.3,35a14.77,14.77,0,0,1-3.06.86,7.84,7.84,0,0,1-1.68,0,6.08,6.08,0,0,0-2.51.13,6.42,6.42,0,0,0-2.76,2,6.72,6.72,0,0,1,3.39-3A4.33,4.33,0,0,1,49,34.85a13.19,13.19,0,0,1,1.53.12,9.89,9.89,0,0,0,2.3.09,17.18,17.18,0,0,0,4.07-1.17L58,33.45c1.92-.68,3.83-0.51,4.86.42C63.74,34.64,64,35.88,63.58,37.47Z"/></svg>