<svg id="soundwave" xmlns="http://www.w3.org/2000/svg" viewBox="0 0 132 36"><defs><style>.cls-1{fill:#1d1d1b;}</style></defs><title>logo</title><path class="cls-1" d="M8.49,14.7a1.84,1.84,0,0,0-1.72-1A1.69,1.69,0,0,0,5,15.22a1.9,1.9,0,0,0,1.49,1.54l0.77,0.3c1.52,0.6,2.66,1.44,2.66,3.23a3.31,3.31,0,0,1-3.43,3.35,3.35,3.35,0,0,1-3.32-3l1.35-.28a2,2,0,1,0,4.06-.06c0-1.15-.93-1.65-1.85-2L6,17.94c-1.22-.53-2.33-1.22-2.33-2.72A2.93,2.93,0,0,1,6.8,12.44a3.06,3.06,0,0,1,2.76,1.62Z"/><path class="cls-1" d="M27.56,18a5.62,5.62,0,0,1-11.25,0A5.62,5.62,0,0,1,27.56,18Zm-1.34,0a4.29,4.29,0,1,0-8.57,0A4.29,4.29,0,1,0,26.22,18Z"/><path class="cls-1" d="M34.42,12.16l8.06,8.44V12.67h1.34V23.84L35.76,15.4v8H34.42V12.16Z"/><path class="cls-1" d="M54.14,23.4H52.8V12.67h1.34V23.4Z"/><path class="cls-1" d="M69.16,12.67h1.75l-4.83,4.83L71,23.4H69.19l-4-5-0.54.51V23.4H63.27V12.67H64.6v4.66Z"/><path class="cls-1" d="M79.74,23.4H79.06V12.67h1.89a3.35,3.35,0,0,1,2.32.63,3,3,0,0,1,.07,4.33,3.56,3.56,0,0,1-2.39.68H79.74v5.1ZM81,17.67a2.59,2.59,0,0,0,1.88-.58,2.1,2.1,0,0,0,.7-1.61,2.14,2.14,0,0,0-.81-1.74,3,3,0,0,0-1.88-.43H79.74v4.36H81Z"/><path class="cls-1" d="M92.81,19.87L91.37,23.4h-0.7l4.5-11.09L99.66,23.4H99l-1.44-3.53H92.81ZM95.18,14l-2.11,5.18h4.2Z"/><path class="cls-1" d="M113,14.43a2.45,2.45,0,0,0-2.18-1.27,2,2,0,0,0-2,2c0,1.13,1.07,1.59,1.94,2l2.05,1.07A2.34,2.34,0,0,1,114,20.43a3.35,3.35,0,0,1-6.52.81l0.6-.27a2.73,2.73,0,0,0,2.59,1.94,2.61,2.61,0,0,0,2.65-2.53c0-1.21-1.24-1.72-2.16-2.18l-1.94-1a2.15,2.15,0,0,1-1.11-1.92,2.62,2.62,0,0,1,2.75-2.72A3,3,0,0,1,113.46,14Z"/><path class="cls-1" d="M127.84,14.43a2.45,2.45,0,0,0-2.18-1.27,2,2,0,0,0-2,2c0,1.13,1.07,1.59,1.94,2l2.05,1.07a2.34,2.34,0,0,1,1.22,2.14,3.35,3.35,0,0,1-6.52.81l0.6-.27a2.73,2.73,0,0,0,2.59,1.94,2.61,2.61,0,0,0,2.65-2.53c0-1.21-1.24-1.72-2.16-2.18l-1.94-1A2.15,2.15,0,0,1,123,15.25a2.62,2.62,0,0,1,2.75-2.72A3,3,0,0,1,128.32,14Z"/></svg>