<svg id="time" xmlns="http://www.w3.org/2000/svg" xmlns:xlink="http://www.w3.org/1999/xlink" viewBox="0 0 120 120"><defs><style>.cls-1,.cls-10,.cls-11,.cls-12,.cls-13,.cls-14,.cls-15,.cls-16,.cls-17,.cls-18,.cls-2,.cls-3,.cls-4,.cls-5,.cls-6,.cls-7,.cls-8,.cls-9{fill:none;stroke-miterlimit:10;stroke-width:1.4px;}.cls-1{stroke:url(#linear-gradient);}.cls-2{stroke:url(#linear-gradient-2);}.cls-3{stroke:url(#linear-gradient-3);}.cls-4{stroke:url(#linear-gradient-4);}.cls-5{stroke:url(#linear-gradient-5);}.cls-6{stroke:url(#linear-gradient-6);}.cls-7{stroke:url(#linear-gradient-7);}.cls-8{stroke:url(#linear-gradient-8);}.cls-9{stroke:url(#linear-gradient-9);}.cls-10{stroke:url(#linear-gradient-10);}.cls-11{stroke:url(#linear-gradient-11);}.cls-12{stroke:url(#linear-gradient-12);}.cls-13{stroke:url(#linear-gradient-13);}.cls-14{stroke:url(#linear-gradient-14);}.cls-15{stroke:url(#linear-gradient-15);}.cls-16{stroke:url(#linear-gradient-16);}.cls-17{stroke:url(#linear-gradient-17);}.cls-18{stroke:url(#linear-gradient-18);}</style><linearGradient id="linear-gradient" x1="60.05" y1="111.32" x2="60.05" y2="16.65" gradientUnits="userSpaceOnUse"><stop offset="0" stop-color="#cc3948"/><stop offset="1" stop-color="#4ca1d7"/></linearGradient><linearGradient id="linear-gradient-2" x1="60.05" y1="26.64" x2="60.05" y2="20.54" xlink:href="#linear-gradient"/><linearGradient id="linear-gradient-3" x1="39.86" y1="32" x2="39.86" y2="26.01" xlink:href="#linear-gradient"/><linearGradient id="linear-gradient-4" x1="25.07" y1="45.92" x2="25.07" y2="41.66" xlink:href="#linear-gradient"/><linearGradient id="linear-gradient-5" x1="19.66" y1="64.68" x2="19.66" y2="63.28" xlink:href="#linear-gradient"/><linearGradient id="linear-gradient-6" x1="25.07" y1="86.31" x2="25.07" y2="82.04" xlink:href="#linear-gradient"/><linearGradient id="linear-gradient-7" x1="39.86" y1="101.95" x2="39.86" y2="95.97" xlink:href="#linear-gradient"/><linearGradient id="linear-gradient-8" x1="60.05" y1="107.42" x2="60.05" y2="101.32" xlink:href="#linear-gradient"/><linearGradient id="linear-gradient-9" x1="80.25" y1="101.95" x2="80.25" y2="95.97" xlink:href="#linear-gradient"/><linearGradient id="linear-gradient-10" x1="95.03" y1="86.31" x2="95.03" y2="82.04" xlink:href="#linear-gradient"/><linearGradient id="linear-gradient-11" x1="100.44" y1="64.68" x2="100.44" y2="63.28" xlink:href="#linear-gradient"/><linearGradient id="linear-gradient-12" x1="95.03" y1="45.92" x2="95.03" y2="41.66" xlink:href="#linear-gradient"/><linearGradient id="linear-gradient-13" x1="80.25" y1="32" x2="80.25" y2="26.01" xlink:href="#linear-gradient"/><linearGradient id="linear-gradient-14" x1="60.05" y1="76.91" x2="60.05" y2="31.29" xlink:href="#linear-gradient"/><linearGradient id="linear-gradient-15" x1="59.83" y1="69.26" x2="59.83" y2="59.14" xlink:href="#linear-gradient"/><linearGradient id="linear-gradient-16" x1="60.05" y1="13.69" x2="60.05" y2="6.4" xlink:href="#linear-gradient"/><linearGradient id="linear-gradient-17" x1="94.81" y1="30.57" x2="94.81" y2="15.14" gradientTransform="translate(7.49 66.29) rotate(-40)" xlink:href="#linear-gradient"/><linearGradient id="linear-gradient-18" x1="25.19" y1="30.29" x2="25.19" y2="14.86" gradientTransform="translate(20.4 -10.91) rotate(40)" xlink:href="#linear-gradient"/></defs><title>160212_svg_Export</title><circle class="cls-1" cx="60.05" cy="63.98" r="46.64"/><line class="cls-2" x1="60.05" y1="20.54" x2="60.05" y2="26.64"/><line class="cls-3" x1="38.33" y1="26.36" x2="41.38" y2="31.65"/><line class="cls-4" x1="22.43" y1="42.26" x2="27.72" y2="45.31"/><line class="cls-5" x1="16.61" y1="63.98" x2="22.71" y2="63.98"/><line class="cls-6" x1="22.43" y1="85.7" x2="27.72" y2="82.65"/><line class="cls-7" x1="38.33" y1="101.6" x2="41.38" y2="96.32"/><line class="cls-8" x1="60.05" y1="107.42" x2="60.05" y2="101.32"/><line class="cls-9" x1="81.77" y1="101.6" x2="78.72" y2="96.32"/><line class="cls-10" x1="97.67" y1="85.7" x2="92.39" y2="82.65"/><line class="cls-11" x1="103.49" y1="63.98" x2="97.39" y2="63.98"/><line class="cls-12" x1="97.67" y1="42.26" x2="92.39" y2="45.31"/><line class="cls-13" x1="81.77" y1="26.36" x2="78.72" y2="31.65"/><line class="cls-14" x1="60.05" y1="31.29" x2="60.05" y2="76.91"/><circle class="cls-15" cx="59.83" cy="64.2" r="4.36"/><rect class="cls-16" x="49.27" y="7.1" width="21.57" height="5.88"/><rect class="cls-17" x="87.85" y="19.91" width="13.92" height="5.88" transform="translate(36.87 -55.6) rotate(40)"/><rect class="cls-18" x="18.23" y="19.63" width="13.92" height="5.88" transform="translate(-8.62 21.47) rotate(-40)"/></svg>